<?xml version="1.0" standalone="no"?>
<svg xmlns:xlink="http://www.w3.org/1999/xlink" id="wave" style="transform:rotate(180deg); transition: 0.3s" viewBox="0 0 1440 290" version="1.1" xmlns="http://www.w3.org/2000/svg"><defs><linearGradient id="sw-gradient-0" x1="0" x2="0" y1="1" y2="0"><stop stop-color="rgba(24, 43, 58, 1)" offset="0%"/><stop stop-color="rgba(79.621, 102.739, 120.99, 1)" offset="100%"/></linearGradient></defs><path style="transform:translate(0, 0px); opacity:1" fill="url(#sw-gradient-0)" d="M0,232L34.3,207.8C68.6,184,137,135,206,125.7C274.3,116,343,145,411,145C480,145,549,116,617,87C685.7,58,754,29,823,53.2C891.4,77,960,155,1029,188.5C1097.1,222,1166,213,1234,183.7C1302.9,155,1371,106,1440,106.3C1508.6,106,1577,155,1646,183.7C1714.3,213,1783,222,1851,188.5C1920,155,1989,77,2057,62.8C2125.7,48,2194,97,2263,140.2C2331.4,184,2400,222,2469,212.7C2537.1,203,2606,145,2674,145C2742.9,145,2811,203,2880,198.2C2948.6,193,3017,126,3086,106.3C3154.3,87,3223,116,3291,125.7C3360,135,3429,126,3497,145C3565.7,164,3634,213,3703,222.3C3771.4,232,3840,203,3909,203C3977.1,203,4046,232,4114,203C4182.9,174,4251,87,4320,67.7C4388.6,48,4457,97,4526,130.5C4594.3,164,4663,184,4731,174C4800,164,4869,126,4903,106.3L4937.1,87L4937.1,290L4902.9,290C4868.6,290,4800,290,4731,290C4662.9,290,4594,290,4526,290C4457.1,290,4389,290,4320,290C4251.4,290,4183,290,4114,290C4045.7,290,3977,290,3909,290C3840,290,3771,290,3703,290C3634.3,290,3566,290,3497,290C3428.6,290,3360,290,3291,290C3222.9,290,3154,290,3086,290C3017.1,290,2949,290,2880,290C2811.4,290,2743,290,2674,290C2605.7,290,2537,290,2469,290C2400,290,2331,290,2263,290C2194.3,290,2126,290,2057,290C1988.6,290,1920,290,1851,290C1782.9,290,1714,290,1646,290C1577.1,290,1509,290,1440,290C1371.4,290,1303,290,1234,290C1165.7,290,1097,290,1029,290C960,290,891,290,823,290C754.3,290,686,290,617,290C548.6,290,480,290,411,290C342.9,290,274,290,206,290C137.1,290,69,290,34,290L0,290Z"/></svg>